<?xml version="1.0" standalone="no"?><svg xmlns="http://www.w3.org/2000/svg" viewBox="0 0 1440 320"><path fill="#79aae0" fill-opacity="1" d="M0,224L20,224C40,224,80,224,120,202.7C160,181,200,139,240,112C280,85,320,75,360,85.3C400,96,440,128,480,133.3C520,139,560,117,600,122.7C640,128,680,160,720,186.7C760,213,800,235,840,250.7C880,267,920,277,960,245.3C1000,213,1040,139,1080,138.7C1120,139,1160,213,1200,234.7C1240,256,1280,224,1320,202.7C1360,181,1400,171,1420,165.3L1440,160L1440,320L1420,320C1400,320,1360,320,1320,320C1280,320,1240,320,1200,320C1160,320,1120,320,1080,320C1040,320,1000,320,960,320C920,320,880,320,840,320C800,320,760,320,720,320C680,320,640,320,600,320C560,320,520,320,480,320C440,320,400,320,360,320C320,320,280,320,240,320C200,320,160,320,120,320C80,320,40,320,20,320L0,320Z"></path></svg>